<svg xmlns="http://www.w3.org/2000/svg" width="31.005" height="27.25" viewBox="0 0 31.005 27.25"><defs><style>.a{fill:#fff;}</style></defs><g transform="translate(0 0)"><path class="a" d="M9.989,18.167H26.463a.909.909,0,0,0,.873-.659L30.969,4.791A.908.908,0,0,0,30.1,3.633H7.894L7.245.711A.909.909,0,0,0,6.358,0H.908a.908.908,0,1,0,0,1.817H5.63L8.909,16.575A2.725,2.725,0,0,0,9.992,21.8H26.463a.908.908,0,1,0,0-1.817H9.992a.908.908,0,0,1,0-1.816ZM28.892,5.45l-3.114,10.9H10.72L8.3,5.45Zm0,0" transform="translate(0)"/><path class="a" d="M150,362.725A2.725,2.725,0,1,0,152.725,360,2.728,2.728,0,0,0,150,362.725Zm2.725-.908a.908.908,0,1,1-.908.908A.909.909,0,0,1,152.725,361.817Zm0,0" transform="translate(-140.917 -338.2)"/><path class="a" d="M362,362.725A2.725,2.725,0,1,0,364.725,360,2.728,2.728,0,0,0,362,362.725Zm2.725-.908a.908.908,0,1,1-.908.908A.909.909,0,0,1,364.725,361.817Zm0,0" transform="translate(-340.079 -338.2)"/></g></svg>